{
  "accessors": [
    {
      "bufferView": 2,
      "componentType": 5126,
      "count": 65534,
      "max": [
        453.5517578125,
        589.29168701171875,
        319.30157470703125
      ],
      "min": [
        -537.27166748046875,
        -292.51724243164062,
        -362.49807739257812
      ],
      "type": "VEC3"
    },
    {
      "bufferView": 2,
      "byteOffset": 786408,
      "componentType": 5126,
      "count": 65534,
      "max": [
        0.99990969896316528,
        0.99998742341995239,
        0.99994772672653198
      ],
      "min": [
        -0.99999260902404785,
        -0.998191237449646,
        -0.99996668100357056
      ],
      "type": "VEC3"
    },
    {
      "bufferView": 1,
      "componentType": 5126,
      "count": 65534,
      "max": [
        0.49985206127166748,
        0.99986541271209717
      ],
      "min": [
        0.00013627175940200686,
        0.50021326541900635
      ],
      "type": "VEC2"
    },
    {
      "bufferView": 0,
      "componentType": 5125,
      "count": 214251,
      "max": [
        65533
      ],
      "min": [
        0
      ],
      "type": "SCALAR"
    },
    {
      "bufferView": 2,
      "byteOffset": 1572816,
      "componentType": 5126,
      "count": 65532,
      "max": [
        459.176025390625,
        593.19720458984375,
        320.95166015625
      ],
      "min": [
        -540.823974609375,
        -291.3465576171875,
        -362.1976318359375
      ],
      "type": "VEC3"
    },
    {
      "bufferView": 2,
      "byteOffset": 2359200,
      "componentType": 5126,
      "count": 65532,
      "max": [
        0.99996989965438843,
        0.99998724460601807,
        0.99983280897140503
      ],
      "min": [
        -0.99997580051422119,
        -0.99931985139846802,
        -0.99996310472488403
      ],
      "type": "VEC3"
    },
    {
      "bufferView": 1,
      "byteOffset": 524272,
      "componentType": 5126,
      "count": 65532,
      "max": [
        0.99970149993896484,
        0.99986505508422852
      ],
      "min": [
        0.00013897134340368211,
        0.50021052360534668
      ],
      "type": "VEC2"
    },
    {
      "bufferView": 0,
      "byteOffset": 857004,
      "componentType": 5125,
      "count": 120267,
      "max": [
        65531
      ],
      "min": [
        0
      ],
      "type": "SCALAR"
    },
    {
      "bufferView": 2,
      "byteOffset": 3145584,
      "componentType": 5126,
      "count": 65532,
      "max": [
        455.72222900390625,
        593.19720458984375,
        320.87667846679688
      ],
      "min": [
        -538.9561767578125,
        -292.51724243164062,
        -362.1976318359375
      ],
      "type": "VEC3"
    },
    {
      "bufferView": 2,
      "byteOffset": 3931968,
      "componentType": 5126,
      "count": 65532,
      "max": [
        0.99996989965438843,
        0.99991875886917114,
        0.99990087747573853
      ],
      "min": [
        -0.99999260902404785,
        -0.99879753589630127,
        -0.99996668100357056
      ],
      "type": "VEC3"
    },
    {
      "bufferView": 1,
      "byteOffset": 1048528,
      "componentType": 5126,
      "count": 65532,
      "max": [
        0.9998621940612793,
        0.99986064434051514
      ],
      "min": [
        0.50013822317123413,
        0.50021839141845703
      ],
      "type": "VEC2"
    },
    {
      "bufferView": 0,
      "byteOffset": 1338072,
      "componentType": 5125,
      "count": 147702,
      "max": [
        65531
      ],
      "min": [
        0
      ],
      "type": "SCALAR"
    },
    {
      "bufferView": 2,
      "byteOffset": 4718352,
      "componentType": 5126,
      "count": 65534,
      "max": [
        459.176025390625,
        589.29168701171875,
        319.9317626953125
      ],
      "min": [
        -540.823974609375,
        -292.51724243164062,
        -362.49807739257812
      ],
      "type": "VEC3"
    },
    {
      "bufferView": 2,
      "byteOffset": 5504760,
      "componentType": 5126,
      "count": 65534,
      "max": [
        0.99986124038696289,
        0.99991875886917114,
        0.99990087747573853
      ],
      "min": [
        -0.99999260902404785,
        -0.99976730346679688,
        -0.99996310472488403
      ],
      "type": "VEC3"
    },
    {
      "bufferView": 1,
      "byteOffset": 1572784,
      "componentType": 5126,
      "count": 65534,
      "max": [
        0.99986076354980469,
        0.99985396862030029
      ],
      "min": [
        0.00013399124145507812,
        0.00032174587249755859
      ],
      "type": "VEC2"
    },
    {
      "bufferView": 0,
      "byteOffset": 1928880,
      "componentType": 5125,
      "count": 119652,
      "max": [
        65533
      ],
      "min": [
        0
      ],
      "type": "SCALAR"
    },
    {
      "bufferView": 2,
      "byteOffset": 6291168,
      "componentType": 5126,
      "count": 880,
      "max": [
        433.7763671875,
        425.49057006835938,
        309.26388549804688
      ],
      "min": [
        -420.9678955078125,
        -288.8572998046875,
        -357.11224365234375
      ],
      "type": "VEC3"
    },
    {
      "bufferView": 2,
      "byteOffset": 6301728,
      "componentType": 5126,
      "count": 880,
      "max": [
        0.99886852502822876,
        0.9948006272315979,
        0.99644678831100464
      ],
      "min": [
        -0.99004268646240234,
        -0.98868972063064575,
        -0.99928992986679077
      ],
      "type": "VEC3"
    },
    {
      "bufferView": 1,
      "byteOffset": 2097056,
      "componentType": 5126,
      "count": 880,
      "max": [
        0.49627518653869629,
        0.48947900533676147
      ],
      "min": [
        0.0062466859817504883,
        0.043924272060394287
      ],
      "type": "VEC2"
    },
    {
      "bufferView": 0,
      "byteOffset": 2407488,
      "componentType": 5125,
      "count": 897,
      "max": [
        879
      ],
      "min": [
        0
      ],
      "type": "SCALAR"
    }
  ],
  "asset": {
    "extras": {
      "author": "matobug (https://sketchfab.com/matobug)",
      "license": "CC-BY-4.0 (http://creativecommons.org/licenses/by/4.0/)",
      "source": "https://sketchfab.com/3d-models/suculenta-16164dcf98d746aa9d8e8241e345f766",
      "title": "Suculenta"
    },
    "generator": "Sketchfab-9.31.1",
    "version": "2.0"
  },
  "bufferViews": [
    {
      "buffer": 0,
      "byteLength": 2411076,
      "byteOffset": 0,
      "name": "floatBufferViews",
      "target": 34963
    },
    {
      "buffer": 0,
      "byteLength": 2104096,
      "byteOffset": 2411076,
      "byteStride": 8,
      "name": "floatBufferViews",
      "target": 34962
    },
    {
      "buffer": 0,
      "byteLength": 6312288,
      "byteOffset": 4515172,
      "byteStride": 12,
      "name": "floatBufferViews",
      "target": 34962
    }
  ],
  "buffers": [
    {
      "byteLength": 10827460,
      "uri": "scene.bin"
    }
  ],
  "images": [
    {
      "uri": "textures/Material0_baseColor.jpeg"
    }
  ],
  "materials": [
    {
      "doubleSided": true,
      "emissiveFactor": [
        0,
        0,
        0
      ],
      "name": "Material0",
      "pbrMetallicRoughness": {
        "baseColorFactor": [
          1,
          1,
          1,
          1
        ],
        "baseColorTexture": {
          "index": 0,
          "texCoord": 0
        },
        "metallicFactor": 0.14155403145881595,
        "roughnessFactor": 1
      }
    }
  ],
  "meshes": [
    {
      "name": "Stereo textured mesh_Material0_0",
      "primitives": [
        {
          "attributes": {
            "NORMAL": 1,
            "POSITION": 0,
            "TEXCOORD_0": 2
          },
          "indices": 3,
          "material": 0,
          "mode": 4
        }
      ]
    },
    {
      "name": "Stereo textured mesh_Material0_0",
      "primitives": [
        {
          "attributes": {
            "NORMAL": 5,
            "POSITION": 4,
            "TEXCOORD_0": 6
          },
          "indices": 7,
          "material": 0,
          "mode": 4
        }
      ]
    },
    {
      "name": "Stereo textured mesh_Material0_0",
      "primitives": [
        {
          "attributes": {
            "NORMAL": 9,
            "POSITION": 8,
            "TEXCOORD_0": 10
          },
          "indices": 11,
          "material": 0,
          "mode": 4
        }
      ]
    },
    {
      "name": "Stereo textured mesh_Material0_0",
      "primitives": [
        {
          "attributes": {
            "NORMAL": 13,
            "POSITION": 12,
            "TEXCOORD_0": 14
          },
          "indices": 15,
          "material": 0,
          "mode": 4
        }
      ]
    },
    {
      "name": "Stereo textured mesh_Material0_0",
      "primitives": [
        {
          "attributes": {
            "NORMAL": 17,
            "POSITION": 16,
            "TEXCOORD_0": 18
          },
          "indices": 19,
          "material": 0,
          "mode": 4
        }
      ]
    }
  ],
  "nodes": [
    {
      "children": [
        1
      ],
      "name": "RootNode (gltf orientation matrix)",
      "rotation": [
        -0.70710678118654746,
        -0,
        -0,
        0.70710678118654757
      ]
    },
    {
      "children": [
        2
      ],
      "matrix": [
        -1,
        1.6081226229577292e-16,
        2.2204460492503131e-16,
        0,
        -2.2204460492503131e-16,
        -2.2204460492503131e-16,
        -1,
        0,
        -1.6081226229577292e-16,
        -1,
        2.2204460492503131e-16,
        0,
        -81.649169921875,
        -129.56741333007812,
        -129.56741333007812,
        1
      ],
      "name": "RootNode (model correction matrix)"
    },
    {
      "children": [
        3
      ],
      "matrix": [
        1,
        0,
        0,
        0,
        0,
        -1,
        0,
        0,
        0,
        0,
        -1,
        0,
        0,
        0,
        0,
        1
      ],
      "name": "sketchfabTemp.obj.fbx"
    },
    {
      "children": [
        4
      ],
      "name": "RootNode"
    },
    {
      "children": [
        5,
        6,
        7,
        8,
        9
      ],
      "name": "Stereo textured mesh"
    },
    {
      "mesh": 0,
      "name": "Stereo textured mesh_Material0_0"
    },
    {
      "mesh": 1,
      "name": "Stereo textured mesh_Material0_0"
    },
    {
      "mesh": 2,
      "name": "Stereo textured mesh_Material0_0"
    },
    {
      "mesh": 3,
      "name": "Stereo textured mesh_Material0_0"
    },
    {
      "mesh": 4,
      "name": "Stereo textured mesh_Material0_0"
    }
  ],
  "samplers": [
    {
      "magFilter": 9729,
      "minFilter": 9987,
      "wrapS": 10497,
      "wrapT": 10497
    }
  ],
  "scene": 0,
  "scenes": [
    {
      "name": "OSG_Scene",
      "nodes": [
        0
      ]
    }
  ],
  "textures": [
    {
      "sampler": 0,
      "source": 0
    }
  ]
}

